TITLE ""
FILE "2Q_t_0488-0500.mp3" MP3
  TRACK 01 AUDIO
    TITLE "2Q_t_0488-0500_01"
    INDEX 01 00:00:00
  TRACK 02 AUDIO
    TITLE "2Q_t_0488-0500_02"
    INDEX 01 00:01:06
  TRACK 03 AUDIO
    TITLE "2Q_t_0488-0500_03"
    INDEX 01 00:01:53
  TRACK 04 AUDIO
    TITLE "2Q_t_0488-0500_04"
    INDEX 01 00:03:15
  TRACK 05 AUDIO
    TITLE "2Q_t_0488-0500_05"
    INDEX 01 00:03:60
  TRACK 06 AUDIO
    TITLE "2Q_t_0488-0500_06"
    INDEX 01 00:05:23
  TRACK 07 AUDIO
    TITLE "2Q_t_0488-0500_07"
    INDEX 01 00:05:68
  TRACK 08 AUDIO
    TITLE "2Q_t_0488-0500_08"
    INDEX 01 00:06:72
  TRACK 09 AUDIO
    TITLE "2Q_t_0488-0500_09"
    INDEX 01 00:07:44
  TRACK 10 AUDIO
    TITLE "2Q_t_0488-0500_10"
    INDEX 01 00:10:19
  TRACK 11 AUDIO
    TITLE "2Q_t_0488-0500_11"
    INDEX 01 00:10:64
  TRACK 12 AUDIO
    TITLE "2Q_t_0488-0500_12"
    INDEX 01 00:12:10
  TRACK 13 AUDIO
    TITLE "2Q_t_0488-0500_13"
    INDEX 01 00:12:57
  TRACK 14 AUDIO
    TITLE "2Q_t_0488-0500_14"
    INDEX 01 00:15:12
  TRACK 15 AUDIO
    TITLE "2Q_t_0488-0500_15"
    INDEX 01 00:15:59
  TRACK 16 AUDIO
    TITLE "2Q_t_0488-0500_16"
    INDEX 01 00:16:72
  TRACK 17 AUDIO
    TITLE "2Q_t_0488-0500_17"
    INDEX 01 00:17:50
  TRACK 18 AUDIO
    TITLE "2Q_t_0488-0500_18"
    INDEX 01 00:20:25
  TRACK 19 AUDIO
    TITLE "2Q_t_0488-0500_19"
    INDEX 01 00:20:72
  TRACK 20 AUDIO
    TITLE "2Q_t_0488-0500_20"
    INDEX 01 00:22:10
  TRACK 21 AUDIO
    TITLE "2Q_t_0488-0500_21"
    INDEX 01 00:22:57
  TRACK 22 AUDIO
    TITLE "2Q_t_0488-0500_22"
    INDEX 01 00:26:25
  TRACK 23 AUDIO
    TITLE "2Q_t_0488-0500_23"
    INDEX 01 00:26:70
  TRACK 24 AUDIO
    TITLE "2Q_t_0488-0500_24"
    INDEX 01 00:28:20
  TRACK 25 AUDIO
    TITLE "2Q_t_0488-0500_25"
    INDEX 01 00:28:73
  TRACK 26 AUDIO
    TITLE "2Q_t_0488-0500_26"
    INDEX 01 00:31:58
  TRACK 27 AUDIO
    TITLE "2Q_t_0488-0500_27"
    INDEX 01 00:32:28
  TRACK 28 AUDIO
    TITLE "2Q_t_0488-0500_28"
    INDEX 01 00:33:41
  TRACK 29 AUDIO
    TITLE "2Q_t_0488-0500_29"
    INDEX 01 00:34:19
  TRACK 30 AUDIO
    TITLE "2Q_t_0488-0500_30"
    INDEX 01 00:37:55
  TRACK 31 AUDIO
    TITLE "2Q_t_0488-0500_31"
    INDEX 01 00:38:25
  TRACK 32 AUDIO
    TITLE "2Q_t_0488-0500_32"
    INDEX 01 00:39:57
  TRACK 33 AUDIO
    TITLE "2Q_t_0488-0500_33"
    INDEX 01 00:40:29
  TRACK 34 AUDIO
    TITLE "2Q_t_0488-0500_34"
    INDEX 01 00:42:58
  TRACK 35 AUDIO
    TITLE "2Q_t_0488-0500_35"
    INDEX 01 00:43:28
  TRACK 36 AUDIO
    TITLE "2Q_t_0488-0500_36"
    INDEX 01 00:44:64
  TRACK 37 AUDIO
    TITLE "2Q_t_0488-0500_37"
    INDEX 01 00:45:34
  TRACK 38 AUDIO
    TITLE "2Q_t_0488-0500_38"
    INDEX 01 00:46:44
  TRACK 39 AUDIO
    TITLE "2Q_t_0488-0500_39"
    INDEX 01 00:47:12
  TRACK 40 AUDIO
    TITLE "2Q_t_0488-0500_40"
    INDEX 01 00:48:49
  TRACK 41 AUDIO
    TITLE "2Q_t_0488-0500_41"
    INDEX 01 00:49:21
  TRACK 42 AUDIO
    TITLE "2Q_t_0488-0500_42"
    INDEX 01 00:50:42
  TRACK 43 AUDIO
    TITLE "2Q_t_0488-0500_43"
    INDEX 01 00:51:10
  TRACK 44 AUDIO
    TITLE "2Q_t_0488-0500_44"
    INDEX 01 00:52:33
  TRACK 45 AUDIO
    TITLE "2Q_t_0488-0500_45"
    INDEX 01 00:53:14
  TRACK 46 AUDIO
    TITLE "2Q_t_0488-0500_46"
    INDEX 01 00:54:51
  TRACK 47 AUDIO
    TITLE "2Q_t_0488-0500_47"
    INDEX 01 00:55:19
  TRACK 48 AUDIO
    TITLE "2Q_t_0488-0500_48"
    INDEX 01 00:56:32
  TRACK 49 AUDIO
    TITLE "2Q_t_0488-0500_49"
    INDEX 01 00:57:08
  TRACK 50 AUDIO
    TITLE "2Q_t_0488-0500_50"
    INDEX 01 00:58:25
  TRACK 51 AUDIO
    TITLE "2Q_t_0488-0500_51"
    INDEX 01 00:58:70
  TRACK 52 AUDIO
    TITLE "2Q_t_0488-0500_52"
    INDEX 01 01:00:20
  TRACK 53 AUDIO
    TITLE "2Q_t_0488-0500_53"
    INDEX 01 01:00:65
  TRACK 54 AUDIO
    TITLE "2Q_t_0488-0500_54"
    INDEX 01 01:01:69
  TRACK 55 AUDIO
    TITLE "2Q_t_0488-0500_55"
    INDEX 01 01:02:43
  TRACK 56 AUDIO
    TITLE "2Q_t_0488-0500_56"
    INDEX 01 01:04:42
